<svg width="200" height="200" viewBox="0 0 200 200" fill="none" xmlns="http://www.w3.org/2000/svg">
<rect width="200" height="200" fill="white"/>
<rect x="11.1977" y="47.4108" width="177.385" height="105.178" rx="13" stroke="black" stroke-width="6"/>
<path d="M188.802 87.607C187.978 86.7936 181.56 85.6508 179.279 85.0899C173.941 83.5252 164.262 111.997 155.713 114.868C151.013 116.913 139.915 88.2955 131.029 87.1638C121.583 85.961 113.739 111.011 101.734 112.312C95.8619 113.608 87.1625 89.028 79.391 88.4883C69.7001 87.8153 61.7589 113.254 52.068 113.254C39.9544 108.812 40.8965 87.8153 30.398 87.8153C21.4862 87.8153 17.1166 100.191 15.0528 104.228C15.0066 104.876 14.3498 105.857 12.0926 104.598" stroke="black" stroke-width="8"/>
</svg>
